<svg width="16" height="14" viewBox="0 0 16 14" fill="none" xmlns="http://www.w3.org/2000/svg">
<path d="M11.567 13.4674C11.567 13.7615 11.8047 14 12.0979 14C12.3911 14 12.6289 13.7615 12.6289 13.4674H11.567ZM2.99595 10.6184C3.28919 10.6184 3.5269 10.3799 3.5269 10.0858C3.5269 9.79163 3.28919 9.55317 2.99595 9.55317V10.6184ZM9.20727 13.4674C9.20727 13.7615 9.44498 14 9.73822 14C10.0315 14 10.2692 13.7615 10.2692 13.4674H9.20727ZM10.2692 11.4384C10.2692 11.1442 10.0315 10.9058 9.73822 10.9058C9.44498 10.9058 9.20727 11.1442 9.20727 11.4384H10.2692ZM14.129 1.5522C13.8525 1.45414 13.5492 1.59948 13.4514 1.8768C13.3537 2.15413 13.4986 2.45844 13.775 2.55649L14.129 1.5522ZM13.775 5.85634C13.4986 5.95441 13.3537 6.25868 13.4514 6.53602C13.5492 6.81336 13.8525 6.95868 14.129 6.86061L13.775 5.85634ZM12.0757 2.18253C11.7993 2.08447 11.4959 2.2298 11.3981 2.50713C11.3004 2.78446 11.4453 3.08876 11.7217 3.18682L12.0757 2.18253ZM11.7217 5.22603C11.4453 5.32403 11.3004 5.62838 11.3981 5.90572C11.4959 6.18305 11.7993 6.32838 12.0757 6.2303L11.7217 5.22603ZM7.04138 6.08696C5.65895 6.08696 4.5383 4.96281 4.5383 3.57609H3.47641C3.47641 5.55115 5.07248 7.15217 7.04138 7.15217V6.08696ZM4.5383 3.57609C4.5383 2.18937 5.65895 1.06522 7.04138 1.06522V0C5.07248 0 3.47641 1.60107 3.47641 3.57609H4.5383ZM7.04138 1.06522C8.42374 1.06522 9.54442 2.18937 9.54442 3.57609H10.6063C10.6063 1.60107 9.01021 0 7.04138 0V1.06522ZM9.54442 3.57609C9.54442 4.44056 9.10935 5.20328 8.44445 5.65577L9.04063 6.53724C9.98435 5.89499 10.6063 4.80849 10.6063 3.57609H9.54442ZM8.44445 5.65577C8.04449 5.92793 7.56224 6.08696 7.04138 6.08696V7.15217C7.78144 7.15217 8.47024 6.92536 9.04063 6.53724L8.44445 5.65577ZM12.6289 13.4674V11.7766H11.567V13.4674H12.6289ZM8.38968 7.52416H6.13016V8.58938H8.38968V7.52416ZM3.07515 5.21256L2.66677 3.77876L1.64573 4.0714L2.05412 5.5052L3.07515 5.21256ZM0.0412523 4.48402L1.22424 9.23072L2.25443 8.9724L1.07144 4.22566L0.0412523 4.48402ZM1.22424 9.23072C1.42748 10.0463 2.15795 10.6184 2.99595 10.6184V9.55317C2.64521 9.55317 2.33949 9.31373 2.25443 8.9724L1.22424 9.23072ZM1.35987 2.78988C0.475614 2.78988 -0.173213 3.62348 0.0412523 4.48402L1.07144 4.22566C1.02454 4.03744 1.16645 3.8551 1.35987 3.8551V2.78988ZM2.66677 3.77876C2.50005 3.19343 1.96672 2.78988 1.35987 2.78988V3.8551C1.49261 3.8551 1.60927 3.94337 1.64573 4.0714L2.66677 3.77876ZM6.13016 7.52416C4.71158 7.52416 3.46487 6.58084 3.07515 5.21256L2.05412 5.5052C2.57408 7.33075 4.23747 8.58938 6.13016 8.58938V7.52416ZM12.6289 11.7766C12.6289 9.42801 10.7309 7.52416 8.38968 7.52416V8.58938C10.1445 8.58938 11.567 10.0163 11.567 11.7766H12.6289ZM10.2692 13.4674V11.4384H9.20727V13.4674H10.2692ZM14.4271 2.96897C14.7543 3.29717 14.9381 3.74228 14.9381 4.20641H16C16 3.45977 15.7043 2.74371 15.178 2.21575L14.4271 2.96897ZM14.9381 4.20641C14.9381 4.67054 14.7543 5.11563 14.4271 5.44387L15.178 6.19705C15.7043 5.66909 16 4.95306 16 4.20641H14.9381ZM13.775 2.55649C14.0181 2.6427 14.2414 2.78266 14.4271 2.96897L15.178 2.21575C14.8792 1.91602 14.5199 1.69085 14.129 1.5522L13.775 2.55649ZM14.4271 5.44387C14.2414 5.63013 14.0181 5.77013 13.775 5.85634L14.129 6.86061C14.5199 6.72198 14.8792 6.49684 15.178 6.19705L14.4271 5.44387ZM12.1247 3.44172C12.3269 3.64453 12.4404 3.9196 12.4404 4.20641H13.5023C13.5023 3.63709 13.2769 3.09108 12.8756 2.6885L12.1247 3.44172ZM12.4404 4.20641C12.4404 4.49323 12.3269 4.7683 12.1247 4.9711L12.8756 5.72433C13.2769 5.32175 13.5023 4.77574 13.5023 4.20641H12.4404ZM11.7217 3.18682C11.8719 3.24009 12.0099 3.32659 12.1247 3.44172L12.8756 2.6885C12.6477 2.45994 12.3738 2.28825 12.0757 2.18253L11.7217 3.18682ZM12.1247 4.9711C12.0099 5.08624 11.8719 5.1727 11.7217 5.22603L12.0757 6.2303C12.3738 6.12462 12.6477 5.95289 12.8756 5.72433L12.1247 4.9711Z" fill="#5D5D5D"/>
</svg>
