<svg width="14" height="17" viewBox="0 0 14 17" fill="none" xmlns="http://www.w3.org/2000/svg">
<path d="M8.04929 0.014628C4.5147 -0.202872 1.5386 2.02069 1.60591 5.64357L1.60322 5.97147L0.0676047 8.68317C-0.0149937 8.82927 -0.0223513 9.00617 0.0479948 9.15905C0.117765 9.31197 0.25705 9.42179 0.421703 9.45394L1.37072 9.71587L1.66861 12.5917C1.6768 12.8686 1.79999 13.1291 2.00879 13.3117C2.21785 13.4933 2.49396 13.5797 2.76923 13.5489L3.5272 13.6094C3.67493 13.5928 3.82324 13.6399 3.93386 13.7391C4.0448 13.8386 4.10805 13.9806 4.10805 14.1294V16.3789H10.5195C10.5195 16.3789 10.5195 15.2933 10.5195 14.8561C10.5195 14.419 10.6702 13.4195 10.9569 12.9621C11.9962 11.3003 13.6883 10.4161 13.9736 7.0075C14.259 3.59937 12.2249 0.271924 8.04929 0.014628ZM12.4688 6.35276C12.1543 6.35276 11.8259 6.35276 11.8259 6.35276C11.6694 6.3525 11.5424 6.2255 11.5421 6.06904V5.673C11.5421 5.52799 11.4241 5.40998 11.2791 5.40998C11.1338 5.40998 11.0158 5.52799 11.0158 5.673V6.06904C11.0161 6.51658 11.3786 6.87883 11.8259 6.87909C11.8267 6.87909 12.0941 6.87909 12.3775 6.87909C12.0753 8.12657 11.2426 8.59648 10.4078 8.12494C9.8637 7.81723 9.91002 7.35795 9.65631 6.97691V5.58522C9.65631 5.44021 9.53826 5.3222 9.393 5.3222C9.24773 5.3222 9.12997 5.44024 9.12997 5.58522V6.56424C8.7522 6.40237 8.15066 6.2985 7.14627 6.2985C6.87426 6.2985 6.62323 6.29633 6.3891 6.29194V5.2347C6.3891 5.08915 6.27109 4.97139 6.12582 4.97139C5.98052 4.97139 5.8628 5.08915 5.8628 5.2347V6.27752C3.73437 6.19466 3.42148 5.85259 3.25414 4.99241C3.24732 4.94116 3.24243 4.89049 3.23804 4.84004H4.35527C4.88512 4.84004 5.31468 4.41048 5.31468 3.88092V3.46661C5.31468 3.32135 5.1967 3.20359 5.05137 3.20359C4.9061 3.20359 4.78838 3.32135 4.78838 3.46661V3.88092C4.78784 4.11995 4.59433 4.31349 4.35527 4.314H3.23667C3.301 3.58191 3.64688 2.98337 4.18437 2.43605C4.59513 2.01711 5.10182 1.69251 5.67665 1.472C5.67665 1.81218 5.67665 2.14414 5.67665 2.27745C5.67825 2.50314 5.75733 2.73318 5.90941 2.92883C5.9857 3.02589 6.08276 3.11367 6.20132 3.17742C6.31904 3.24172 6.45941 3.28043 6.60906 3.28017C7.03178 3.28017 7.45481 3.28017 7.45481 3.28017C7.60008 3.28017 7.71784 3.16216 7.71784 3.01715C7.71784 2.87189 7.60008 2.75387 7.45481 2.75387C7.45481 2.75387 7.03178 2.75387 6.60906 2.75387C6.54745 2.75359 6.49812 2.73941 6.45125 2.71433C6.38174 2.67726 6.31686 2.60886 6.27109 2.52489C6.22556 2.44203 6.20212 2.34498 6.20292 2.27741C6.20292 2.12233 6.20292 1.69823 6.20292 1.30517C6.63929 1.19234 7.1051 1.13265 7.59218 1.13265C7.71592 1.13265 7.84129 1.13646 7.96669 1.14436C9.07054 1.21224 10.0261 1.55837 10.7746 2.15307V4.46685C10.7746 4.6124 10.8926 4.73038 11.0379 4.73038C11.1832 4.73038 11.3009 4.61237 11.3009 4.46685V2.64949C11.3148 2.66501 11.3293 2.68001 11.3431 2.69581C12.0971 3.56828 12.5034 4.77216 12.4928 6.04911C12.4877 6.15464 12.4792 6.2549 12.4688 6.35276Z" fill="#5D5D5D"/>
<path d="M9.12997 2.75663C8.9847 2.75663 8.86669 2.87464 8.86669 3.01991V3.8703C8.8664 4.05399 8.71762 4.20389 8.53332 4.20418H7.5949C7.44963 4.20418 7.33187 4.32165 7.33187 4.46695C7.33187 4.6125 7.44963 4.73048 7.5949 4.73048H8.53332C9.00841 4.72968 9.39299 4.34535 9.39299 3.8703V3.01991C9.39299 2.87464 9.27524 2.75663 9.12997 2.75663Z" fill="#5D5D5D"/>
</svg>
