<svg width="15" height="14" viewBox="0 0 15 14" fill="none" xmlns="http://www.w3.org/2000/svg">
<path d="M8.13262 13.6202L4.91984 10.4322C4.68461 10.197 4.55246 9.87798 4.55246 9.54532C4.55246 9.21266 4.68461 8.89362 4.91984 8.65839C5.15506 8.42317 5.4741 8.29102 5.80676 8.29102C6.13943 8.29102 6.45846 8.42317 6.69369 8.65839L7.51239 9.4771V3.62214C7.50982 3.31927 7.61815 3.02593 7.81695 2.79742C8.01575 2.56892 8.29128 2.42104 8.59159 2.38168C8.75507 2.368 8.91962 2.38825 9.07491 2.44116C9.2302 2.49407 9.37288 2.57849 9.494 2.68914C9.61513 2.79978 9.71209 2.93426 9.7788 3.08414C9.84551 3.23402 9.88053 3.39606 9.88167 3.56011V7.12023L12.9828 7.56679C13.265 7.60709 13.5233 7.74781 13.7101 7.96314C13.8969 8.17846 13.9999 8.45394 14 8.73902C14.0014 10.3992 13.6148 12.0367 12.8712 13.521L12.8153 13.6326" stroke="#5D5D5D" stroke-miterlimit="10"/>
<path d="M9.88168 6.26431C10.2235 6.11967 10.5334 5.90889 10.7934 5.64408C11.208 5.22945 11.4904 4.7012 11.6048 4.1261C11.7192 3.55101 11.6604 2.95491 11.4361 2.41319C11.2117 1.87146 10.8317 1.40845 10.3441 1.08268C9.85659 0.756921 9.2834 0.583046 8.69704 0.583046C8.11068 0.583046 7.53749 0.756921 7.04995 1.08268C6.56241 1.40845 6.18242 1.87146 5.95803 2.41319C5.73363 2.95491 5.67492 3.55101 5.78931 4.1261C5.9037 4.7012 6.18605 5.22945 6.60067 5.64408C6.86073 5.90889 7.17059 6.11967 7.5124 6.26431" stroke="#5D5D5D" stroke-miterlimit="10"/>
<path d="M4.55391 4.14933L2.77385 5.92318L1 4.14933" stroke="#5D5D5D" stroke-miterlimit="10"/>
<path d="M2.77385 0V5.92318" stroke="#5D5D5D" stroke-miterlimit="10"/>
</svg>
