<svg width="17" height="17" viewBox="0 0 17 17" fill="none" xmlns="http://www.w3.org/2000/svg">
<path fill-rule="evenodd" clip-rule="evenodd" d="M7.81912 0.000224795C8.58435 -0.0110705 9.24258 0.404462 9.82355 0.983972L9.82417 0.984638L10.7999 1.9603C10.9091 1.79725 11.0357 1.64247 11.1795 1.49865C12.3729 0.305259 14.3079 0.305259 15.5014 1.49865C16.6948 2.69204 16.6948 4.6269 15.5014 5.8203C15.3575 5.96412 15.2028 6.09067 15.0397 6.19992L16.0154 7.17554L16.016 7.17624C16.5955 7.7571 17.011 8.41531 16.9998 9.18051C16.9886 9.93982 16.5595 10.5743 16.0143 11.1156C16.014 11.1159 16.0136 11.1163 16.0133 11.1166L15.0255 12.1043C14.6564 12.4733 14.1733 12.4344 13.8816 12.3113C13.5929 12.1893 13.2848 11.9092 13.2147 11.4809C13.1655 11.1805 13.0257 10.893 12.7931 10.6604C12.2043 10.0717 11.2498 10.0717 10.6611 10.6604C10.0723 11.2492 10.0723 12.2037 10.6611 12.7924C10.8936 13.0249 11.1811 13.1648 11.4815 13.214C11.9099 13.2841 12.1901 13.5922 12.3119 13.8809C12.435 14.1726 12.4741 14.6556 12.105 15.0247L11.1145 16.0152C11.1142 16.0155 11.1138 16.0158 11.1135 16.0162C10.5731 16.5604 9.93929 16.9886 9.1808 16.9998C8.4165 17.011 7.75896 16.5964 7.179 16.0179L7.1783 16.0172L6.20017 15.0391C6.09093 15.2021 5.96439 15.3568 5.82059 15.5007C4.62715 16.6941 2.6922 16.6941 1.49876 15.5007C0.305326 14.3073 0.305326 12.3724 1.49876 11.179C1.64256 11.0352 1.79731 10.9086 1.96034 10.7995L0.984656 9.82377L0.98399 9.82315C0.404456 9.24221 -0.0110783 8.584 0.000225117 7.81881C0.0114357 7.05949 0.440503 6.42512 0.985663 5.8838C0.986011 5.88346 0.986367 5.88311 0.986716 5.88276L1.97465 4.89486C2.34375 4.52577 2.82693 4.56478 3.11855 4.6879C3.40728 4.80979 3.71536 5.08993 3.7855 5.51832C3.83468 5.81873 3.97454 6.10626 4.20711 6.33883C4.79585 6.92754 5.7504 6.92754 6.33914 6.33883C6.92789 5.7501 6.92789 4.7956 6.33915 4.20688C6.10657 3.97432 5.81902 3.83447 5.51861 3.78529C5.09019 3.71515 4.81005 3.40709 4.68815 3.11836C4.56503 2.82675 4.52601 2.3436 4.89511 1.97451L5.88296 0.986713C5.88332 0.986349 5.88368 0.985985 5.88404 0.985629C6.42538 0.440476 7.05977 0.0114271 7.81912 0.000224795ZM7.84196 1.54841C7.68363 1.55075 7.4163 1.63986 6.98197 2.07741L6.97995 2.07949L6.55928 2.50012C6.87628 2.64711 7.1732 2.8512 7.43403 3.11203C8.62747 4.30542 8.62747 6.24029 7.43403 7.43365C6.24061 8.62705 4.30565 8.62705 3.11222 7.43365C2.85137 7.17283 2.64727 6.87593 2.50028 6.55895L2.07955 6.97967L2.07749 6.98169C1.63994 7.416 1.55081 7.68332 1.54847 7.84172C1.54621 7.99462 1.62227 8.27046 2.08 8.72939C2.07993 8.72932 2.08007 8.72947 2.08 8.72939L3.88422 10.5335C4.09165 10.7409 4.16403 11.0477 4.07117 11.3261C3.97831 11.6043 3.73617 11.8061 3.44574 11.8475C3.13386 11.8918 2.83426 12.0333 2.59366 12.2739C2.00492 12.8626 2.00492 13.8171 2.59367 14.4058C3.18241 14.9945 4.13694 14.9945 4.72569 14.4058C4.96629 14.1652 5.10779 13.8656 5.15213 13.5538C5.19342 13.2634 5.3953 13.0212 5.67356 12.9284C5.95182 12.8355 6.25866 12.9079 6.46608 13.1153L8.27257 14.9217C8.27281 14.9219 8.27296 14.9221 8.27319 14.9223C8.27312 14.9223 8.27319 14.9223 8.27319 14.9223C8.73021 15.378 9.00544 15.4538 9.15796 15.4516C9.3159 15.4493 9.58277 15.3604 10.0155 14.9244L10.0175 14.9223L10.4408 14.4991C10.1239 14.3521 9.82695 14.148 9.5662 13.8873C8.37276 12.6939 8.37276 10.759 9.5662 9.56558C10.7596 8.37219 12.6945 8.37219 13.888 9.56558C14.1488 9.8264 14.3529 10.1233 14.4999 10.4402L14.9204 10.0196L14.9225 10.0176C15.3601 9.58339 15.4492 9.31599 15.4515 9.15767C15.4538 9.00477 15.3777 8.72893 14.9203 8.27023C14.9201 8.27007 14.9205 8.27038 14.9203 8.27023L13.1157 6.46578C12.9083 6.25835 12.8359 5.95151 12.9288 5.67327C13.0217 5.39501 13.2638 5.19314 13.5543 5.15187C13.8662 5.10755 14.1659 4.96605 14.4065 4.72544C14.9952 4.13672 14.9952 3.18222 14.4065 2.5935C13.8177 2.00478 12.8632 2.00478 12.2744 2.5935C12.0338 2.83411 11.8923 3.13373 11.848 3.44563C11.8067 3.73605 11.6048 3.9782 11.3265 4.07107C11.0483 4.16394 10.7415 4.09156 10.534 3.88414L8.72998 2.08015C8.72982 2.08005 8.73005 2.08025 8.72998 2.08015C8.2711 1.62249 7.99486 1.54615 7.84196 1.54841Z" fill="#5D5D5D"/>
</svg>
